<svg xmlns="http://www.w3.org/2000/svg" xmlns:xlink="http://www.w3.org/1999/xlink" width="136" height="46.646" viewBox="0 0 136 46.646">
  <defs>
    <clipPath id="clip-path">
      <path id="Path_234" data-name="Path 234" d="M0,.605H136V-46.041H0Z" transform="translate(0 46.041)" fill="#194036"/>
    </clipPath>
  </defs>
  <g id="Group_2" data-name="Group 2" clip-path="url(#clip-path)">
    <g id="Group_1" data-name="Group 1" transform="translate(0 0)">
      <path id="Path_233" data-name="Path 233" d="M.1.551l-7.442.963,4.283,3.222ZM9.477-23.272-4.948-.036l13.1-1.737ZM4.427-17.71,11.6-29.271-1.267-41.91ZM45.408-15.1c0,5.159-3.581,9.05-8.331,9.05-4.714,0-8.406-4.01-8.406-9.129v-.08c0-5.159,3.581-9.05,8.331-9.05,4.713,0,8.406,4.01,8.406,9.13Zm5.244-.079v-.08c0-7.9-5.836-13.852-13.575-13.852a13.646,13.646,0,0,0-13.65,13.932v.079C23.427-7.2,29.264-1.244,37-1.244a13.646,13.646,0,0,0,13.65-13.931M72.063-9.509v-.079c0-4.165-2.186-6.313-8.067-7.923-4.351-1.171-6-1.824-6-4.043v-.079c0-1.306,1-2.83,3.806-2.83a11.923,11.923,0,0,1,6.753,2.56l2.577-3.927a14.39,14.39,0,0,0-9.254-3.2c-5.278,0-8.824,3.194-8.824,7.948V-21c0,4.946,2.722,6.547,8.441,8.082,4.413,1.189,5.622,2.032,5.622,3.925v.079c0,1.868-1.618,3.028-4.222,3.028a11.916,11.916,0,0,1-7.821-3.189L52.152-5.392A15.893,15.893,0,0,0,62.787-1.324c5.722,0,9.276-3.136,9.276-8.185M90.12-19.256c0,2.76-2.015,4.614-5.013,4.614H80.094v-9.306h4.9c3.21,0,5.127,1.724,5.127,4.613Zm5.055-.119v-.079c0-5.574-3.8-9.176-9.691-9.176H75.115V-1.72h4.98v-8.321h4.825c6.231,0,10.256-3.664,10.256-9.334m14.7,4.217h-6.3v-8.79h6.182c3.162,0,4.976,1.595,4.976,4.375v.08c0,2.633-1.909,4.335-4.862,4.335M120.239-1.72l-6.309-9.693.473-.184c2.46-.958,5.392-3.161,5.392-8.214v-.079a8.569,8.569,0,0,0-2.148-6.056c-1.7-1.782-4.182-2.685-7.392-2.685H98.6V-1.72h4.979v-8.875h5.2l5.656,8.875Zm8.416-26.91h-4.98V-1.719h4.98Z" transform="translate(7.345 41.91)" fill="#ffffff"/>
    </g>
  </g>
</svg>
